{
  "source": "C:\\Users\\Peter\\Desktop\\stuff\\MIUN\\quantitative_research\\video_compression\\videos\\BVI-HD\\BVI-HD_CDVL_videos\\ORIG\\Grass_1920x1080_60fps.mp4",
  "output": "C:\\Users\\Peter\\Desktop\\stuff\\MIUN\\quantitative_research\\video_compression\\compressed_videos\\BVI-HD\\vp9\\2.5\\Grass_1920x1080_60fps_vp9.webm",
  "codec": "vp9",
  "ok": "Input #0, mov,mp4,m4a,3gp,3g2,mj2, from 'C:\\Users\\Peter\\Desktop\\stuff\\MIUN\\quantitative_research\\video_compression\\videos\\BVI-HD\\BVI-HD_CDVL_videos\\ORIG\\Grass_1920x1080_60fps.mp4':\n  Metadata:\n    major_brand     : isom\n    minor_version   : 512\n    compatible_brands: isomiso2avc1mp41\n    encoder         : Lavf54.28.101\n  Duration: 00:00:05.00, start: 0.000000, bitrate: 655968 kb/s\n  Stream #0:0[0x1](und): Video: h264 (High 4:4:4 Predictive) (avc1 / 0x31637661), yuv420p(progressive), 1920x1080, 655963 kb/s, 60 fps, 60 tbr, 60 tbn (default)\n    Metadata:\n      handler_name    : VideoHandler\n      vendor_id       : [0][0][0][0]\n[out#0/webm @ 0000012d69e89840] Codec AVOption b:a (set bitrate (in bits/s)) has not been used for any stream. The most likely reason is either wrong type (e.g. a video option with no video streams) or that it is a private option of some decoder which was not actually used for any stream.\nStream mapping:\n  Stream #0:0 -> #0:0 (h264 (native) -> vp9 (libvpx-vp9))\nPress [q] to stop, [?] for help\n[libvpx-vp9 @ 0000012d6ac8f1c0] v1.15.2-100-g40561f514\nOutput #0, webm, to 'C:\\Users\\Peter\\Desktop\\stuff\\MIUN\\quantitative_research\\video_compression\\compressed_videos\\BVI-HD\\vp9\\2.5\\Grass_1920x1080_60fps_vp9.webm':\n  Metadata:\n    major_brand     : isom\n    minor_version   : 512\n    compatible_brands: isomiso2avc1mp41\n    encoder         : Lavf62.3.100\n  Stream #0:0(und): Video: vp9, yuv420p(tv, progressive), 1920x1080, q=2-31, 2500 kb/s, 60 fps, 1k tbn (default)\n    Metadata:\n      encoder         : Lavc62.11.100 libvpx-vp9\n      handler_name    : VideoHandler\n      vendor_id       : [0][0][0][0]\n    Side data:\n      cpb: bitrate max/min/avg: 0/0/0 buffer size: 2500000 vbv_delay: N/A\nframe=    0 fps=0.0 q=0.0 size=       0KiB time=N/A bitrate=N/A speed=N/A elapsed=0:00:00.51    \nframe=    0 fps=0.0 q=0.0 size=       0KiB time=N/A bitrate=N/A speed=N/A elapsed=0:00:01.08    \nframe=    6 fps=3.7 q=54.0 size=       1KiB time=00:00:00.10 bitrate=  50.6kbits/s speed=0.0616x elapsed=0:00:01.62    \nframe=   11 fps=5.1 q=59.0 size=       1KiB time=00:00:00.18 bitrate=  27.6kbits/s speed=0.085x elapsed=0:00:02.15    \nframe=   14 fps=5.2 q=61.0 size=       1KiB time=00:00:00.23 bitrate=  21.7kbits/s speed=0.0862x elapsed=0:00:02.70    \nframe=   18 fps=5.6 q=54.0 size=       1KiB time=00:00:00.30 bitrate=  16.9kbits/s speed=0.0932x elapsed=0:00:03.21    \nframe=   22 fps=5.8 q=57.0 size=       1KiB time=00:00:00.36 bitrate=  13.8kbits/s speed=0.0971x elapsed=0:00:03.77    \nframe=   25 fps=5.8 q=46.0 size=       1KiB time=00:00:00.41 bitrate=  12.2kbits/s speed=0.0959x elapsed=0:00:04.34    \nframe=   28 fps=5.7 q=52.0 size=       1KiB time=00:00:00.45 bitrate=  11.3kbits/s speed=0.092x elapsed=0:00:04.89    \nframe=   30 fps=5.4 q=53.0 size=       1KiB time=00:00:00.50 bitrate=  10.1kbits/s speed=0.0906x elapsed=0:00:05.51    \nframe=   32 fps=5.2 q=54.0 size=       1KiB time=00:00:00.53 bitrate=   9.5kbits/s speed=0.0863x elapsed=0:00:06.17    \nframe=   34 fps=5.0 q=55.0 size=       1KiB time=00:00:00.56 bitrate=   8.9kbits/s speed=0.0826x elapsed=0:00:06.86    \nframe=   36 fps=4.8 q=57.0 size=       1KiB time=00:00:00.60 bitrate=   8.4kbits/s speed=0.0801x elapsed=0:00:07.49    \nframe=   39 fps=4.8 q=50.0 size=       1KiB time=00:00:00.65 bitrate=   7.8kbits/s speed=0.0802x elapsed=0:00:08.10    \nframe=   42 fps=4.9 q=55.0 size=       1KiB time=00:00:00.70 bitrate=   7.2kbits/s speed=0.0809x elapsed=0:00:08.65    \nframe=   45 fps=4.9 q=54.0 size=       1KiB time=00:00:00.75 bitrate=   6.8kbits/s speed=0.0816x elapsed=0:00:09.18    \nframe=   48 fps=4.9 q=61.0 size=       1KiB time=00:00:00.80 bitrate=   6.3kbits/s speed=0.0822x elapsed=0:00:09.73    \nframe=   51 fps=5.0 q=48.0 size=       1KiB time=00:00:00.85 bitrate=   6.0kbits/s speed=0.0827x elapsed=0:00:10.27    \nframe=   54 fps=5.0 q=56.0 size=       1KiB time=00:00:00.90 bitrate=   5.6kbits/s speed=0.0831x elapsed=0:00:10.83    \nframe=   57 fps=5.0 q=49.0 size=       1KiB time=00:00:00.95 bitrate=   5.3kbits/s speed=0.0837x elapsed=0:00:11.35    \nframe=   60 fps=5.1 q=61.0 size=       1KiB time=00:00:01.00 bitrate=   5.1kbits/s speed=0.0842x elapsed=0:00:11.87    \nframe=   61 fps=4.9 q=42.0 size=       1KiB time=00:00:01.01 bitrate=   5.0kbits/s speed=0.0819x elapsed=0:00:12.41    \nframe=   64 fps=4.9 q=54.0 size=       1KiB time=00:00:01.06 bitrate=   4.7kbits/s speed=0.0822x elapsed=0:00:12.97    \nframe=   68 fps=5.0 q=57.0 size=       1KiB time=00:00:01.13 bitrate=   4.5kbits/s speed=0.0829x elapsed=0:00:13.66    \nframe=   70 fps=4.9 q=60.0 size=       1KiB time=00:00:01.16 bitrate=   4.3kbits/s speed=0.082x elapsed=0:00:14.23    \nframe=   72 fps=4.9 q=61.0 size=       1KiB time=00:00:01.20 bitrate=   4.2kbits/s speed=0.0813x elapsed=0:00:14.75    \nframe=   74 fps=4.8 q=49.0 size=       1KiB time=00:00:01.23 bitrate=   4.1kbits/s speed=0.0805x elapsed=0:00:15.31    \nframe=   77 fps=4.8 q=50.0 size=       1KiB time=00:00:01.28 bitrate=   3.9kbits/s speed=0.0807x elapsed=0:00:15.90    \nframe=   80 fps=4.9 q=57.0 size=       1KiB time=00:00:01.33 bitrate=   3.8kbits/s speed=0.0809x elapsed=0:00:16.48    \nframe=   84 fps=4.9 q=58.0 size=       1KiB time=00:00:01.38 bitrate=   3.7kbits/s speed=0.0809x elapsed=0:00:17.09    \nframe=   85 fps=4.8 q=41.0 size=       1KiB time=00:00:01.41 bitrate=   3.6kbits/s speed=0.08x elapsed=0:00:17.71    \nframe=   87 fps=4.8 q=48.0 size=       1KiB time=00:00:01.45 bitrate=   3.5kbits/s speed=0.0794x elapsed=0:00:18.26    \nframe=   90 fps=4.8 q=54.0 size=       1KiB time=00:00:01.50 bitrate=   3.4kbits/s speed=0.0797x elapsed=0:00:18.82    \nframe=   94 fps=4.9 q=58.0 size=       1KiB time=00:00:01.56 bitrate=   3.2kbits/s speed=0.0809x elapsed=0:00:19.36    \nframe=   96 fps=4.8 q=60.0 size=       1KiB time=00:00:01.60 bitrate=   3.2kbits/s speed=0.0801x elapsed=0:00:19.98    \nframe=   98 fps=4.8 q=47.0 size=       1KiB time=00:00:01.61 bitrate=   3.1kbits/s speed=0.0784x elapsed=0:00:20.62    \nframe=  100 fps=4.7 q=52.0 size=       1KiB time=00:00:01.66 bitrate=   3.0kbits/s speed=0.0786x elapsed=0:00:21.20    \nframe=  104 fps=4.8 q=57.0 size=       1KiB time=00:00:01.73 bitrate=   2.9kbits/s speed=0.0797x elapsed=0:00:21.75    \nframe=  106 fps=4.7 q=60.0 size=       1KiB time=00:00:01.76 bitrate=   2.9kbits/s speed=0.0791x elapsed=0:00:22.33    \nframe=  108 fps=4.7 q=61.0 size=       1KiB time=00:00:01.80 bitrate=   2.8kbits/s speed=0.0787x elapsed=0:00:22.85    \nframe=  110 fps=4.7 q=47.0 size=       1KiB time=00:00:01.83 bitrate=   2.8kbits/s speed=0.0782x elapsed=0:00:23.43    \nframe=  112 fps=4.7 q=53.0 size=       1KiB time=00:00:01.86 bitrate=   2.7kbits/s speed=0.0778x elapsed=0:00:23.99    \nframe=  116 fps=4.7 q=58.0 size=       1KiB time=00:00:01.93 bitrate=   2.6kbits/s speed=0.0788x elapsed=0:00:24.54    \nframe=  118 fps=4.7 q=61.0 size=       1KiB time=00:00:01.96 bitrate=   2.6kbits/s speed=0.0781x elapsed=0:00:25.18    \nframe=  120 fps=4.7 q=47.0 size=       1KiB time=00:00:02.00 bitrate=   2.5kbits/s speed=0.0777x elapsed=0:00:25.74    \nframe=  123 fps=4.7 q=49.0 size=       1KiB time=00:00:02.05 bitrate=   2.5kbits/s speed=0.078x elapsed=0:00:26.28    \nframe=  127 fps=4.7 q=52.0 size=       1KiB time=00:00:02.11 bitrate=   2.4kbits/s speed=0.079x elapsed=0:00:26.80    \nframe=  128 fps=4.7 q=58.0 size=       1KiB time=00:00:02.13 bitrate=   2.4kbits/s speed=0.078x elapsed=0:00:27.35    \nframe=  130 fps=4.6 q=51.0 size=     768KiB time=00:00:02.16 bitrate=2903.7kbits/s speed=0.0774x elapsed=0:00:27.99    \nframe=  133 fps=4.6 q=51.0 size=     768KiB time=00:00:02.21 bitrate=2838.3kbits/s speed=0.0773x elapsed=0:00:28.66    \nframe=  136 fps=4.7 q=58.0 size=     768KiB time=00:00:02.26 bitrate=2775.6kbits/s speed=0.0776x elapsed=0:00:29.20    \nframe=  139 fps=4.7 q=48.0 size=     768KiB time=00:00:02.31 bitrate=2715.7kbits/s speed=0.0779x elapsed=0:00:29.73    \nframe=  141 fps=4.6 q=61.0 size=     768KiB time=00:00:02.35 bitrate=2677.2kbits/s speed=0.0774x elapsed=0:00:30.34    \nframe=  143 fps=4.6 q=50.0 size=     768KiB time=00:00:02.38 bitrate=2639.8kbits/s speed=0.0769x elapsed=0:00:30.99    \nframe=  147 fps=4.7 q=54.0 size=     768KiB time=00:00:02.45 bitrate=2567.9kbits/s speed=0.0777x elapsed=0:00:31.51    \nframe=  149 fps=4.6 q=54.0 size=     768KiB time=00:00:02.48 bitrate=2533.5kbits/s speed=0.0774x elapsed=0:00:32.08    \nframe=  151 fps=4.6 q=56.0 size=     768KiB time=00:00:02.51 bitrate=2499.9kbits/s speed=0.0771x elapsed=0:00:32.65    \nframe=  153 fps=4.6 q=50.0 size=     768KiB time=00:00:02.55 bitrate=2467.2kbits/s speed=0.0767x elapsed=0:00:33.24    \nframe=  156 fps=4.6 q=50.0 size=     768KiB time=00:00:02.60 bitrate=2419.8kbits/s speed=0.0769x elapsed=0:00:33.82    \nframe=  159 fps=4.6 q=54.0 size=     768KiB time=00:00:02.65 bitrate=2374.1kbits/s speed=0.0771x elapsed=0:00:34.36    \nframe=  162 fps=4.6 q=50.0 size=     768KiB time=00:00:02.68 bitrate=2344.6kbits/s speed=0.0769x elapsed=0:00:34.89    \nframe=  163 fps=4.6 q=57.0 size=     768KiB time=00:00:02.71 bitrate=2315.9kbits/s speed=0.0766x elapsed=0:00:35.45    \nframe=  165 fps=4.6 q=49.0 size=     768KiB time=00:00:02.75 bitrate=2287.8kbits/s speed=0.0763x elapsed=0:00:36.05    \nframe=  168 fps=4.6 q=49.0 size=     768KiB time=00:00:02.80 bitrate=2246.9kbits/s speed=0.0765x elapsed=0:00:36.59    \nframe=  171 fps=4.6 q=54.0 size=     768KiB time=00:00:02.85 bitrate=2207.5kbits/s speed=0.0768x elapsed=0:00:37.12    \nframe=  173 fps=4.6 q=55.0 size=     768KiB time=00:00:02.88 bitrate=2182.0kbits/s speed=0.0765x elapsed=0:00:37.69    \nframe=  175 fps=4.6 q=56.0 size=     768KiB time=00:00:02.91 bitrate=2157.1kbits/s speed=0.0763x elapsed=0:00:38.22    \nframe=  177 fps=4.6 q=49.0 size=     768KiB time=00:00:02.95 bitrate=2132.7kbits/s speed=0.0761x elapsed=0:00:38.77    \nframe=  180 fps=4.6 q=51.0 size=     768KiB time=00:00:03.00 bitrate=2097.2kbits/s speed=0.0763x elapsed=0:00:39.30    \nframe=  183 fps=4.6 q=54.0 size=     768KiB time=00:00:03.05 bitrate=2062.8kbits/s speed=0.0765x elapsed=0:00:39.84    \nframe=  186 fps=4.6 q=52.0 size=     768KiB time=00:00:03.10 bitrate=2029.5kbits/s speed=0.0767x elapsed=0:00:40.40    \nframe=  188 fps=4.6 q=41.0 size=     768KiB time=00:00:03.13 bitrate=2007.9kbits/s speed=0.0764x elapsed=0:00:40.99    \nframe=  191 fps=4.6 q=51.0 size=     768KiB time=00:00:03.18 bitrate=1976.4kbits/s speed=0.0767x elapsed=0:00:41.51    \nframe=  193 fps=4.6 q=53.0 size=     768KiB time=00:00:03.21 bitrate=1955.9kbits/s speed=0.0765x elapsed=0:00:42.06    \nframe=  195 fps=4.6 q=54.0 size=     768KiB time=00:00:03.25 bitrate=1935.8kbits/s speed=0.0763x elapsed=0:00:42.60    \nframe=  199 fps=4.6 q=57.0 size=     768KiB time=00:00:03.31 bitrate=1896.9kbits/s speed=0.0769x elapsed=0:00:43.12    \nframe=  200 fps=4.6 q=41.0 size=     768KiB time=00:00:03.33 bitrate=1887.4kbits/s speed=0.0763x elapsed=0:00:43.69    \nframe=  202 fps=4.6 q=47.0 size=     768KiB time=00:00:03.36 bitrate=1868.7kbits/s speed=0.0762x elapsed=0:00:44.20    \nframe=  205 fps=4.6 q=52.0 size=     768KiB time=00:00:03.41 bitrate=1841.4kbits/s speed=0.0764x elapsed=0:00:44.73    \nframe=  209 fps=4.6 q=54.0 size=     768KiB time=00:00:03.48 bitrate=1806.2kbits/s speed=0.0769x elapsed=0:00:45.27    \nframe=  211 fps=4.6 q=56.0 size=     768KiB time=00:00:03.51 bitrate=1789.0kbits/s speed=0.0768x elapsed=0:00:45.81    \nframe=  213 fps=4.6 q=50.0 size=     768KiB time=00:00:03.55 bitrate=1772.2kbits/s speed=0.0765x elapsed=0:00:46.40    \nframe=  216 fps=4.6 q=50.0 size=     768KiB time=00:00:03.60 bitrate=1747.6kbits/s speed=0.0766x elapsed=0:00:46.97    \nframe=  220 fps=4.6 q=53.0 size=     768KiB time=00:00:03.66 bitrate=1715.9kbits/s speed=0.0772x elapsed=0:00:47.51    \nframe=  223 fps=4.6 q=55.0 size=     768KiB time=00:00:03.71 bitrate=1692.8kbits/s speed=0.0773x elapsed=0:00:48.06    \nframe=  224 fps=4.6 q=41.0 size=     768KiB time=00:00:03.73 bitrate=1685.2kbits/s speed=0.0767x elapsed=0:00:48.64    \nframe=  227 fps=4.6 q=49.0 size=     768KiB time=00:00:03.78 bitrate=1662.9kbits/s speed=0.0769x elapsed=0:00:49.19    \nframe=  230 fps=4.6 q=50.0 size=     768KiB time=00:00:03.83 bitrate=1641.2kbits/s speed=0.0771x elapsed=0:00:49.72    \nframe=  233 fps=4.6 q=55.0 size=     768KiB time=00:00:03.88 bitrate=1620.1kbits/s speed=0.0773x elapsed=0:00:50.26    \nframe=  235 fps=4.6 q=56.0 size=     768KiB time=00:00:03.91 bitrate=1606.3kbits/s speed=0.0771x elapsed=0:00:50.79    \nframe=  238 fps=4.6 q=47.0 size=     768KiB time=00:00:03.96 bitrate=1586.1kbits/s speed=0.0772x elapsed=0:00:51.38    \nframe=  241 fps=4.6 q=52.0 size=     768KiB time=00:00:04.00 bitrate=1572.9kbits/s speed=0.077x elapsed=0:00:51.96    \nframe=  243 fps=4.6 q=53.0 size=     768KiB time=00:00:04.05 bitrate=1553.4kbits/s speed=0.077x elapsed=0:00:52.56    \nframe=  245 fps=4.6 q=54.0 size=     768KiB time=00:00:04.08 bitrate=1540.8kbits/s speed=0.0769x elapsed=0:00:53.11    \nframe=  247 fps=4.6 q=50.0 size=     768KiB time=00:00:04.11 bitrate=1528.3kbits/s speed=0.0767x elapsed=0:00:53.65    \nframe=  251 fps=4.6 q=53.0 size=     768KiB time=00:00:04.18 bitrate=1503.9kbits/s speed=0.0772x elapsed=0:00:54.18    \nframe=  255 fps=4.7 q=54.0 size=     768KiB time=00:00:04.25 bitrate=1480.3kbits/s speed=0.0776x elapsed=0:00:54.75    \nframe=  256 fps=4.6 q=50.0 size=     768KiB time=00:00:04.26 bitrate=1474.6kbits/s speed=0.0772x elapsed=0:00:55.28    \nframe=  259 fps=4.6 q=45.0 size=    1536KiB time=00:00:04.31 bitrate=2915.0kbits/s speed=0.0773x elapsed=0:00:55.85    \nframe=  262 fps=4.6 q=52.0 size=    1536KiB time=00:00:04.36 bitrate=2881.6kbits/s speed=0.0774x elapsed=0:00:56.42    \nframe=  265 fps=4.6 q=48.0 size=    1536KiB time=00:00:04.40 bitrate=2859.8kbits/s speed=0.0772x elapsed=0:00:56.99    \nframe=  266 fps=4.6 q=57.0 size=    1536KiB time=00:00:04.43 bitrate=2838.3kbits/s speed=0.0771x elapsed=0:00:57.51    \nframe=  268 fps=4.6 q=62.0 size=    1536KiB time=00:00:04.46 bitrate=2817.1kbits/s speed=0.0769x elapsed=0:00:58.06    \nframe=  270 fps=4.6 q=46.0 size=    1536KiB time=00:00:04.50 bitrate=2796.2kbits/s speed=0.0767x elapsed=0:00:58.65    \nframe=  272 fps=4.6 q=48.0 size=    1536KiB time=00:00:04.53 bitrate=2775.6kbits/s speed=0.0764x elapsed=0:00:59.32    \nframe=  274 fps=4.6 q=51.0 size=    1536KiB time=00:00:04.56 bitrate=2755.4kbits/s speed=0.0762x elapsed=0:00:59.92    \nframe=  276 fps=4.6 q=53.0 size=    1536KiB time=00:00:04.60 bitrate=2735.4kbits/s speed=0.076x elapsed=0:01:00.56    \nframe=  276 fps=4.5 q=53.0 size=    1536KiB time=00:00:04.60 bitrate=2735.4kbits/s speed=0.0752x elapsed=0:01:01.19    \nframe=  276 fps=4.5 q=53.0 size=    1536KiB time=00:00:04.60 bitrate=2735.4kbits/s speed=0.0744x elapsed=0:01:01.79    \nframe=  276 fps=4.4 q=53.0 size=    1536KiB time=00:00:04.60 bitrate=2735.4kbits/s speed=0.0737x elapsed=0:01:02.45    \nframe=  276 fps=4.4 q=53.0 size=    1536KiB time=00:00:04.60 bitrate=2735.4kbits/s speed=0.073x elapsed=0:01:03.00    \nframe=  276 fps=4.3 q=53.0 size=    1536KiB time=00:00:04.60 bitrate=2735.4kbits/s speed=0.0724x elapsed=0:01:03.54    \nframe=  276 fps=4.3 q=53.0 size=    1536KiB time=00:00:04.60 bitrate=2735.4kbits/s speed=0.0718x elapsed=0:01:04.09    \nframe=  276 fps=4.3 q=53.0 size=    1536KiB time=00:00:04.60 bitrate=2735.4kbits/s speed=0.0712x elapsed=0:01:04.62    \nframe=  276 fps=4.2 q=53.0 size=    1536KiB time=00:00:04.60 bitrate=2735.4kbits/s speed=0.0706x elapsed=0:01:05.18    \nframe=  276 fps=4.2 q=53.0 size=    1536KiB time=00:00:04.60 bitrate=2735.4kbits/s speed=0.07x elapsed=0:01:05.73    \n[out#0/webm @ 0000012d69e89840] video:2139KiB audio:0KiB subtitle:0KiB other streams:0KiB global headers:0KiB muxing overhead: 0.130134%\nframe=  300 fps=4.6 q=51.0 Lsize=    2142KiB time=00:00:05.00 bitrate=3509.9kbits/s speed=0.0759x elapsed=0:01:05.84    \n",
  "seconds": 66.21641874313354,
  "probe_out": {}
}